<svg xmlns="http://www.w3.org/2000/svg" xmlns:xlink="http://www.w3.org/1999/xlink" width="361" zoomAndPan="magnify" viewBox="0 0 270.75 250.499992" height="334" preserveAspectRatio="xMidYMid meet" version="1.0"><defs><clipPath id="5fa36a0e9a"><path d="M 107 8.964844 L 175 8.964844 L 175 40 L 107 40 Z M 107 8.964844 " clip-rule="nonzero"/></clipPath><clipPath id="125cdaa17c"><path d="M 179 175 L 247.847656 175 L 247.847656 243.996094 L 179 243.996094 Z M 179 175 " clip-rule="nonzero"/></clipPath><clipPath id="40148a23f6"><path d="M 22.546875 101 L 72 101 L 72 196 L 22.546875 196 Z M 22.546875 101 " clip-rule="nonzero"/></clipPath></defs><path fill="#ffffff" d="M 198.996094 240.621094 L 80.617188 240.621094 C 72.902344 240.621094 66.5625 234.28125 66.5625 226.566406 L 66.5625 51.273438 C 66.5625 43.417969 72.902344 37.078125 80.617188 37.078125 L 93.433594 37.078125 C 94.675781 37.078125 95.777344 38.183594 95.777344 39.421875 C 95.777344 40.664062 94.675781 41.765625 93.433594 41.765625 L 80.617188 41.765625 C 75.382812 41.765625 71.109375 46.035156 71.109375 51.273438 L 71.109375 226.566406 C 71.109375 231.800781 75.382812 236.074219 80.617188 236.074219 L 198.996094 236.074219 C 200.234375 236.074219 201.335938 237.039062 201.335938 238.28125 C 201.335938 239.519531 200.234375 240.621094 198.996094 240.621094 Z M 219.390625 180.675781 C 218.152344 180.675781 217.1875 179.574219 217.1875 178.332031 L 217.1875 51.273438 C 217.1875 46.035156 212.914062 41.765625 207.675781 41.765625 L 188.109375 41.765625 C 186.867188 41.765625 185.765625 40.664062 185.765625 39.421875 C 185.765625 38.183594 186.867188 37.078125 188.109375 37.078125 L 207.675781 37.078125 C 215.394531 37.078125 221.734375 43.417969 221.734375 51.273438 L 221.734375 178.332031 C 221.734375 179.574219 220.769531 180.675781 219.390625 180.675781 Z M 219.390625 180.675781 " fill-opacity="1" fill-rule="evenodd"/><path fill="#ffffff" d="M 188.109375 54.855469 L 93.433594 54.855469 C 92.195312 54.855469 91.089844 53.890625 91.089844 52.515625 L 91.089844 26.332031 C 91.089844 25.089844 92.195312 23.988281 93.433594 23.988281 L 109.417969 23.988281 C 110.660156 23.988281 111.761719 25.089844 111.761719 26.332031 C 111.761719 27.570312 110.660156 28.671875 109.417969 28.671875 L 95.777344 28.671875 L 95.777344 50.308594 L 185.765625 50.308594 L 185.765625 28.671875 L 171.984375 28.671875 C 170.746094 28.671875 169.78125 27.570312 169.78125 26.332031 C 169.78125 25.089844 170.746094 23.988281 171.984375 23.988281 L 188.109375 23.988281 C 189.347656 23.988281 190.3125 25.089844 190.3125 26.332031 L 190.3125 52.515625 C 190.3125 53.890625 189.347656 54.855469 188.109375 54.855469 Z M 188.109375 54.855469 " fill-opacity="1" fill-rule="evenodd"/><g clip-path="url(#5fa36a0e9a)"><path fill="#ffffff" d="M 171.984375 39.835938 L 109.417969 39.835938 C 108.179688 39.835938 107.214844 38.871094 107.214844 37.628906 L 107.214844 24.402344 C 107.214844 15.996094 114.105469 8.964844 122.511719 8.964844 L 158.894531 8.964844 C 167.4375 8.964844 174.328125 15.996094 174.328125 24.402344 L 174.328125 37.628906 C 174.328125 38.871094 173.363281 39.835938 171.984375 39.835938 Z M 111.761719 35.289062 L 169.78125 35.289062 L 169.78125 24.402344 C 169.78125 18.476562 164.957031 13.652344 158.894531 13.652344 L 122.511719 13.652344 C 116.585938 13.652344 111.761719 18.476562 111.761719 24.402344 Z M 111.761719 35.289062 " fill-opacity="1" fill-rule="evenodd"/></g><path fill="#ffffff" d="M 93.710938 97.578125 C 93.019531 97.578125 92.46875 97.300781 92.054688 96.886719 L 85.304688 90.273438 C 84.476562 89.308594 84.476562 87.929688 85.304688 86.964844 C 86.269531 86.140625 87.785156 86.140625 88.609375 86.964844 L 93.710938 92.066406 L 111.210938 74.5625 C 112.039062 73.734375 113.554688 73.734375 114.378906 74.5625 C 115.34375 75.527344 115.34375 76.90625 114.378906 77.871094 L 95.363281 96.886719 C 94.8125 97.300781 94.261719 97.578125 93.710938 97.578125 Z M 93.710938 97.578125 " fill-opacity="1" fill-rule="evenodd"/><path fill="#ffffff" d="M 201.335938 86 L 134.363281 86 C 133.121094 86 132.15625 85.035156 132.15625 83.660156 C 132.15625 82.417969 133.121094 81.453125 134.363281 81.453125 L 201.335938 81.453125 C 202.578125 81.453125 203.542969 82.417969 203.542969 83.660156 C 203.542969 85.035156 202.578125 86 201.335938 86 Z M 201.335938 86 " fill-opacity="1" fill-rule="evenodd"/><path fill="#ffffff" d="M 191.554688 97.578125 L 134.363281 97.578125 C 133.121094 97.578125 132.15625 96.613281 132.15625 95.234375 C 132.15625 93.992188 133.121094 93.03125 134.363281 93.03125 L 191.554688 93.03125 C 192.792969 93.03125 193.894531 93.992188 193.894531 95.234375 C 193.894531 96.613281 192.792969 97.578125 191.554688 97.578125 Z M 191.554688 97.578125 " fill-opacity="1" fill-rule="evenodd"/><path fill="#ffffff" d="M 93.710938 127.480469 C 93.160156 127.480469 92.46875 127.207031 92.054688 126.792969 L 85.304688 120.039062 C 84.476562 119.214844 84.476562 117.695312 85.304688 116.871094 C 86.269531 115.90625 87.785156 115.90625 88.609375 116.871094 L 93.710938 121.832031 L 111.210938 104.46875 C 112.039062 103.503906 113.554688 103.503906 114.378906 104.46875 C 115.34375 105.292969 115.34375 106.808594 114.378906 107.636719 L 95.363281 126.792969 C 94.8125 127.207031 94.261719 127.480469 93.710938 127.480469 Z M 93.710938 127.480469 " fill-opacity="1" fill-rule="evenodd"/><path fill="#ffffff" d="M 201.335938 115.90625 L 134.363281 115.90625 C 133.121094 115.90625 132.15625 114.804688 132.15625 113.5625 C 132.15625 112.324219 133.121094 111.21875 134.363281 111.21875 L 201.335938 111.21875 C 202.578125 111.21875 203.542969 112.324219 203.542969 113.5625 C 203.542969 114.804688 202.578125 115.90625 201.335938 115.90625 Z M 201.335938 115.90625 " fill-opacity="1" fill-rule="evenodd"/><path fill="#ffffff" d="M 191.554688 127.480469 L 134.363281 127.480469 C 133.121094 127.480469 132.15625 126.378906 132.15625 125.140625 C 132.15625 123.898438 133.121094 122.796875 134.363281 122.796875 L 191.554688 122.796875 C 192.792969 122.796875 193.894531 123.898438 193.894531 125.140625 C 193.894531 126.378906 192.792969 127.480469 191.554688 127.480469 Z M 191.554688 127.480469 " fill-opacity="1" fill-rule="evenodd"/><path fill="#ffffff" d="M 93.710938 157.25 C 93.160156 157.25 92.46875 157.109375 92.054688 156.558594 L 85.304688 149.945312 C 84.476562 148.980469 84.476562 147.601562 85.304688 146.636719 C 86.269531 145.808594 87.785156 145.808594 88.609375 146.636719 L 93.710938 151.734375 L 111.210938 134.234375 C 112.039062 133.40625 113.554688 133.40625 114.378906 134.234375 C 115.34375 135.199219 115.34375 136.578125 114.378906 137.542969 L 95.363281 156.558594 C 94.8125 157.109375 94.261719 157.25 93.710938 157.25 Z M 93.710938 157.25 " fill-opacity="1" fill-rule="evenodd"/><path fill="#ffffff" d="M 201.335938 145.671875 L 134.363281 145.671875 C 133.121094 145.671875 132.15625 144.707031 132.15625 143.328125 C 132.15625 142.089844 133.121094 141.125 134.363281 141.125 L 201.335938 141.125 C 202.578125 141.125 203.542969 142.089844 203.542969 143.328125 C 203.542969 144.707031 202.578125 145.671875 201.335938 145.671875 Z M 201.335938 145.671875 " fill-opacity="1" fill-rule="evenodd"/><path fill="#ffffff" d="M 191.554688 157.25 L 134.363281 157.25 C 133.121094 157.25 132.15625 156.285156 132.15625 155.042969 C 132.15625 153.664062 133.121094 152.699219 134.363281 152.699219 L 191.554688 152.699219 C 192.792969 152.699219 193.894531 153.664062 193.894531 155.042969 C 193.894531 156.285156 192.792969 157.25 191.554688 157.25 Z M 191.554688 157.25 " fill-opacity="1" fill-rule="evenodd"/><path fill="#ffffff" d="M 93.710938 187.152344 C 93.019531 187.152344 92.46875 186.875 92.054688 186.464844 L 85.304688 179.710938 C 84.476562 178.882812 84.476562 177.367188 85.304688 176.542969 C 86.269531 175.578125 87.785156 175.578125 88.609375 176.542969 L 93.710938 181.640625 L 111.210938 164.136719 C 112.039062 163.175781 113.554688 163.175781 114.378906 164.136719 C 115.34375 164.964844 115.34375 166.480469 114.378906 167.308594 L 95.363281 186.464844 C 94.8125 186.875 94.261719 187.152344 93.710938 187.152344 Z M 93.710938 187.152344 " fill-opacity="1" fill-rule="evenodd"/><path fill="#ffffff" d="M 187.832031 175.578125 L 134.363281 175.578125 C 133.121094 175.578125 132.15625 174.472656 132.15625 173.234375 C 132.15625 171.992188 133.121094 170.890625 134.363281 170.890625 L 187.832031 170.890625 C 189.074219 170.890625 190.175781 171.992188 190.175781 173.234375 C 190.175781 174.472656 189.074219 175.578125 187.832031 175.578125 Z M 187.832031 175.578125 " fill-opacity="1" fill-rule="evenodd"/><path fill="#ffffff" d="M 178.1875 187.152344 L 134.363281 187.152344 C 133.121094 187.152344 132.15625 186.050781 132.15625 184.808594 C 132.15625 183.570312 133.121094 182.46875 134.363281 182.46875 L 178.1875 182.46875 C 179.425781 182.46875 180.390625 183.570312 180.390625 184.808594 C 180.390625 186.050781 179.425781 187.152344 178.1875 187.152344 Z M 178.1875 187.152344 " fill-opacity="1" fill-rule="evenodd"/><path fill="#ffffff" d="M 93.710938 216.917969 C 93.160156 216.917969 92.46875 216.78125 92.054688 216.230469 L 85.304688 209.617188 C 84.476562 208.652344 84.476562 207.273438 85.304688 206.308594 C 86.269531 205.480469 87.785156 205.480469 88.609375 206.308594 L 93.710938 211.40625 L 111.210938 193.90625 C 112.039062 193.078125 113.554688 193.078125 114.378906 193.90625 C 115.34375 194.871094 115.34375 196.246094 114.378906 197.210938 L 95.363281 216.230469 C 94.8125 216.78125 94.261719 216.917969 93.710938 216.917969 Z M 93.710938 216.917969 " fill-opacity="1" fill-rule="evenodd"/><path fill="#ffffff" d="M 168.816406 205.34375 L 134.363281 205.34375 C 133.121094 205.34375 132.15625 204.378906 132.15625 203.136719 C 132.15625 201.761719 133.121094 200.796875 134.363281 200.796875 L 168.816406 200.796875 C 170.054688 200.796875 171.15625 201.761719 171.15625 203.136719 C 171.15625 204.378906 170.054688 205.34375 168.816406 205.34375 Z M 168.816406 205.34375 " fill-opacity="1" fill-rule="evenodd"/><path fill="#ffffff" d="M 168.539062 216.917969 L 134.363281 216.917969 C 133.121094 216.917969 132.15625 215.953125 132.15625 214.714844 C 132.15625 213.335938 133.121094 212.371094 134.363281 212.371094 L 168.539062 212.371094 C 169.78125 212.371094 170.746094 213.335938 170.746094 214.714844 C 170.746094 215.953125 169.78125 216.917969 168.539062 216.917969 Z M 168.539062 216.917969 " fill-opacity="1" fill-rule="evenodd"/><g clip-path="url(#125cdaa17c)"><path fill="#ffffff" d="M 213.601562 244.066406 C 194.722656 244.066406 179.289062 228.769531 179.289062 209.753906 C 179.289062 190.875 194.722656 175.4375 213.601562 175.4375 C 232.484375 175.4375 247.917969 190.875 247.917969 209.753906 C 247.917969 228.769531 232.484375 244.066406 213.601562 244.066406 Z M 213.601562 180.125 C 197.203125 180.125 183.835938 193.355469 183.835938 209.753906 C 183.835938 226.152344 197.203125 239.519531 213.601562 239.519531 C 230.003906 239.519531 243.371094 226.152344 243.371094 209.753906 C 243.371094 193.355469 230.003906 180.125 213.601562 180.125 Z M 213.601562 180.125 " fill-opacity="1" fill-rule="evenodd"/></g><path fill="#ffffff" d="M 207.675781 226.015625 C 205.609375 226.015625 203.542969 225.050781 202.027344 223.535156 L 197.617188 219.125 C 194.449219 215.953125 194.449219 210.855469 197.617188 207.6875 C 199.132812 206.171875 201.0625 205.34375 203.265625 205.34375 C 204.78125 205.34375 206.300781 205.757812 207.539062 206.582031 L 218.152344 195.972656 C 219.667969 194.457031 221.734375 193.628906 223.9375 193.628906 C 226.003906 193.628906 228.074219 194.457031 229.589844 195.972656 C 231.105469 197.488281 231.929688 199.554688 231.929688 201.761719 C 231.929688 203.828125 231.105469 205.894531 229.589844 207.410156 L 213.464844 223.535156 C 211.949219 225.050781 209.882812 226.015625 207.675781 226.015625 Z M 203.265625 209.890625 C 202.300781 209.890625 201.476562 210.304688 200.785156 210.992188 C 199.410156 212.371094 199.410156 214.578125 200.785156 215.816406 L 205.335938 220.363281 C 206.574219 221.605469 208.917969 221.605469 210.15625 220.363281 L 226.417969 204.101562 C 226.96875 203.550781 227.382812 202.585938 227.382812 201.761719 C 227.382812 200.796875 226.96875 199.96875 226.417969 199.28125 C 225.039062 197.902344 222.699219 197.902344 221.457031 199.28125 L 209.332031 211.40625 C 208.917969 211.820312 208.367188 211.957031 207.675781 211.957031 C 207.125 211.957031 206.574219 211.820312 206.160156 211.40625 L 205.746094 210.992188 C 205.058594 210.304688 204.230469 209.890625 203.265625 209.890625 Z M 203.265625 209.890625 " fill-opacity="1" fill-rule="evenodd"/><g clip-path="url(#40148a23f6)"><path fill="#ffffff" d="M 68.765625 195.835938 L 59.257812 195.835938 C 56.777344 195.835938 54.710938 193.765625 54.710938 191.148438 L 54.710938 183.84375 C 51.265625 182.605469 48.09375 180.675781 45.199219 178.46875 L 38.863281 182.054688 C 36.792969 183.292969 33.902344 182.605469 32.660156 180.398438 L 23.152344 164 C 21.910156 161.796875 22.738281 158.902344 24.804688 157.660156 L 31.144531 154.078125 C 30.867188 152.285156 30.730469 150.359375 30.730469 148.566406 C 30.730469 146.773438 30.867188 144.84375 31.144531 143.054688 L 24.804688 139.472656 C 22.738281 138.230469 21.910156 135.335938 23.152344 133.269531 L 32.660156 116.734375 C 33.902344 114.527344 36.792969 113.839844 38.863281 115.078125 L 45.199219 118.660156 C 48.09375 116.457031 51.402344 114.527344 54.710938 113.289062 L 54.710938 105.984375 C 54.710938 103.363281 56.777344 101.4375 59.257812 101.4375 L 68.765625 101.4375 C 70.144531 101.4375 71.109375 102.398438 71.109375 103.640625 C 71.109375 104.882812 70.144531 105.984375 68.765625 105.984375 L 59.257812 105.984375 L 59.394531 114.804688 C 59.394531 115.769531 58.707031 116.734375 57.742188 117.007812 C 53.882812 118.386719 50.164062 120.453125 46.992188 123.210938 C 46.304688 123.898438 45.199219 124.035156 44.375 123.484375 L 36.65625 119.074219 L 27.148438 135.472656 L 34.867188 139.882812 C 35.691406 140.433594 36.105469 141.398438 35.96875 142.363281 C 35.554688 144.433594 35.417969 146.5 35.417969 148.566406 C 35.417969 150.632812 35.554688 152.699219 35.96875 154.765625 C 36.105469 155.730469 35.691406 156.695312 34.867188 157.25 L 27.148438 161.65625 L 36.65625 178.058594 L 44.375 173.648438 C 45.199219 173.097656 46.304688 173.234375 46.992188 173.921875 C 50.164062 176.679688 53.882812 178.746094 57.742188 180.125 C 58.707031 180.539062 59.394531 181.363281 59.394531 182.328125 L 59.394531 191.285156 L 68.765625 191.148438 C 70.144531 191.148438 71.109375 192.25 71.109375 193.492188 C 71.109375 194.730469 70.144531 195.835938 68.765625 195.835938 Z M 68.765625 195.835938 " fill-opacity="1" fill-rule="evenodd"/></g><path fill="#ffffff" d="M 68.765625 167.582031 C 58.292969 167.582031 49.886719 159.039062 49.886719 148.566406 C 49.886719 138.09375 58.292969 129.546875 68.765625 129.546875 C 70.144531 129.546875 71.109375 130.652344 71.109375 131.890625 C 71.109375 133.132812 70.144531 134.097656 68.765625 134.097656 C 60.910156 134.097656 54.433594 140.574219 54.433594 148.566406 C 54.433594 156.558594 60.910156 163.035156 68.765625 163.035156 C 70.144531 163.035156 71.109375 164 71.109375 165.242188 C 71.109375 166.480469 70.144531 167.582031 68.765625 167.582031 Z M 68.765625 167.582031 " fill-opacity="1" fill-rule="evenodd"/></svg>