<svg xmlns="http://www.w3.org/2000/svg" xmlns:xlink="http://www.w3.org/1999/xlink" width="361" zoomAndPan="magnify" viewBox="0 0 270.75 250.499992" height="334" preserveAspectRatio="xMidYMid meet" version="1.0"><defs><clipPath id="9fdc361f2b"><path d="M 32 6.351562 L 238.523438 6.351562 L 238.523438 237.640625 L 32 237.640625 Z M 32 6.351562 " clip-rule="nonzero"/></clipPath></defs><g clip-path="url(#9fdc361f2b)"><path fill="#ffffff" d="M 58.953125 90.011719 C 68.132812 90.011719 75.640625 97.519531 75.640625 106.699219 C 75.640625 109.871094 75.851562 112.839844 74.917969 115.894531 C 81.480469 118.910156 85.886719 125.515625 85.886719 132.9375 L 85.886719 156.058594 C 85.886719 158.929688 83.523438 161.292969 80.652344 161.292969 L 37.265625 161.292969 C 34.394531 161.292969 32.03125 158.929688 32.03125 156.058594 L 32.03125 132.9375 C 32.03125 125.515625 36.4375 118.910156 43 115.894531 C 42.070312 112.839844 42.277344 109.855469 42.277344 106.699219 C 42.277344 97.519531 49.769531 90.011719 58.953125 90.011719 Z M 70.824219 122.78125 C 64.246094 129.429688 53.644531 129.414062 47.097656 122.78125 C 42.886719 124.316406 39.972656 128.34375 39.972656 132.9375 L 39.972656 153.339844 L 77.941406 153.339844 L 77.941406 132.9375 C 77.933594 128.34375 75.035156 124.316406 70.824219 122.78125 Z M 58.953125 97.972656 C 54.164062 97.972656 50.234375 101.902344 50.234375 106.699219 L 50.234375 111.082031 C 50.234375 118.726562 59.566406 122.796875 65.117188 117.25 C 66.691406 115.664062 67.679688 113.476562 67.679688 111.082031 L 67.679688 106.699219 C 67.6875 101.902344 63.757812 97.972656 58.953125 97.972656 Z M 171.964844 6.359375 C 181.144531 6.359375 188.636719 13.851562 188.636719 23.03125 C 188.636719 26.203125 188.851562 29.1875 187.933594 32.242188 C 194.496094 35.257812 198.886719 41.863281 198.886719 49.269531 L 198.886719 72.390625 C 198.886719 75.261719 196.523438 77.625 193.648438 77.625 L 150.273438 77.625 C 147.402344 77.625 145.039062 75.261719 145.039062 72.390625 L 145.039062 49.273438 C 145.039062 41.867188 149.429688 35.265625 155.992188 32.25 C 155.078125 29.195312 155.285156 26.207031 155.285156 23.039062 C 155.292969 13.851562 162.785156 6.359375 171.964844 6.359375 Z M 183.824219 39.132812 C 177.277344 45.765625 166.667969 45.765625 160.105469 39.132812 C 155.894531 40.65625 152.980469 44.683594 152.980469 49.273438 L 152.980469 69.691406 L 190.949219 69.691406 L 190.949219 49.273438 C 190.949219 44.679688 188.035156 40.65625 183.824219 39.132812 Z M 171.964844 14.304688 C 167.175781 14.304688 163.234375 18.25 163.234375 23.03125 L 163.234375 27.425781 C 163.234375 35.070312 172.570312 39.140625 178.121094 33.582031 C 179.710938 32.003906 180.699219 29.820312 180.699219 27.425781 L 180.699219 23.03125 C 180.699219 18.25 176.753906 14.304688 171.964844 14.304688 Z M 211.59375 147.988281 C 220.777344 147.988281 228.265625 155.480469 228.265625 164.660156 C 228.265625 167.832031 228.480469 170.816406 227.5625 173.871094 C 234.109375 176.886719 238.515625 183.492188 238.515625 190.898438 L 238.515625 214.019531 C 238.515625 216.921875 236.152344 219.253906 233.28125 219.253906 L 189.90625 219.253906 C 188.484375 219.253906 187.117188 218.664062 186.199219 217.71875 C 185.238281 216.777344 184.648438 215.464844 184.648438 214.015625 L 184.648438 190.894531 C 184.648438 183.484375 189.054688 176.882812 195.617188 173.867188 C 194.6875 170.8125 194.914062 167.828125 194.914062 164.65625 C 194.921875 155.480469 202.414062 147.988281 211.59375 147.988281 Z M 223.453125 180.761719 C 216.890625 187.394531 206.289062 187.394531 199.734375 180.761719 C 195.511719 182.285156 192.613281 186.3125 192.613281 190.902344 L 192.613281 211.320312 L 230.578125 211.320312 L 230.578125 190.902344 C 230.578125 186.308594 227.660156 182.285156 223.453125 180.761719 Z M 211.59375 155.933594 C 206.804688 155.933594 202.867188 159.878906 202.867188 164.660156 L 202.867188 169.054688 C 202.867188 176.699219 212.199219 180.757812 217.75 175.210938 C 219.339844 173.632812 220.328125 171.449219 220.328125 169.054688 L 220.328125 164.660156 C 220.324219 159.878906 216.382812 155.933594 211.59375 155.933594 Z M 126.984375 144.597656 C 123.789062 149.257812 116.816406 152.339844 112.015625 148.035156 L 106.550781 142.992188 L 108.847656 167.480469 C 109.367188 172.96875 112.550781 176.71875 117.25 179.269531 C 118.925781 180.167969 119.238281 180.535156 121.351562 181.210938 C 122.730469 181.648438 124.136719 181.902344 125.546875 181.96875 C 127.746094 182.070312 129.421875 183.929688 129.324219 186.109375 C 129.226562 188.289062 127.367188 189.984375 125.1875 189.882812 C 123.171875 189.785156 121.214844 189.460938 119.34375 188.902344 L 119.34375 196.195312 L 160.71875 196.195312 L 160.71875 181.886719 C 158.421875 182.546875 156.082031 183.039062 153.71875 183.335938 C 151.546875 183.621094 149.5625 182.070312 149.28125 179.898438 C 149.011719 177.726562 150.546875 175.761719 152.71875 175.476562 C 155.421875 175.140625 160.648438 173.925781 162.996094 172.675781 C 166.882812 170.433594 170.097656 168.070312 172.769531 165.421875 C 177.488281 160.785156 181.683594 154.238281 182.132812 147.566406 C 182.347656 144.550781 181.882812 141.472656 180.726562 138.402344 L 168.261719 105.195312 C 168.125 105.09375 167.617188 105.066406 166.953125 105.09375 C 164.839844 105.195312 162.261719 106.207031 160.558594 107.503906 C 153.726562 112.730469 142.972656 116.632812 134.183594 116.785156 C 134.351562 119.871094 136.085938 122.726562 138.804688 124.277344 C 142.480469 126.375 149.535156 124.714844 152.464844 121.660156 C 154.269531 119.753906 157.339844 120.109375 158.707031 122.292969 L 164.523438 131.589844 C 166.074219 134.082031 164.492188 137.515625 161.242188 137.660156 C 153.429688 138.097656 147.066406 144.761719 147.003906 152.773438 C 146.976562 154.953125 145.1875 156.71875 143.007812 156.703125 C 140.824219 156.671875 139.0625 154.886719 139.078125 152.703125 C 139.160156 142.746094 145.554688 134.097656 154.75 130.945312 L 154.257812 130.140625 C 150.738281 132.152344 146.445312 133.238281 142.359375 133.109375 C 141.503906 140.488281 133.421875 147.289062 126.984375 144.597656 Z M 104.675781 130.472656 L 117.328125 142.148438 C 117.664062 142.34375 119.777344 141.441406 120.679688 139.710938 C 120.847656 139.40625 120.949219 139.121094 120.949219 138.953125 L 103.035156 118.449219 C 100.738281 120.390625 99.457031 122.179688 100.769531 124.320312 Z M 134.136719 130.710938 C 131.789062 129.203125 129.886719 127.1875 128.550781 124.878906 C 128.082031 124.0625 127.691406 123.21875 127.351562 122.34375 L 113.210938 103.570312 C 111.5625 103.90625 110.226562 104.722656 109.269531 105.863281 C 108.085938 107.269531 107.433594 109.21875 107.433594 111.445312 L 129.871094 137.128906 C 130.691406 138.035156 135.773438 133.625 134.136719 130.710938 Z M 128.605469 110.851562 C 129.925781 109.617188 131.703125 108.867188 133.644531 108.867188 C 134.957031 108.867188 136.347656 108.75 137.773438 108.542969 L 126.832031 93.007812 C 123.335938 92.683594 120.589844 95.441406 119.40625 98.625 Z M 145.972656 106.40625 C 148.28125 105.546875 150.507812 104.519531 152.503906 103.351562 L 139.363281 85.480469 C 138.605469 85.097656 136.28125 86.878906 135.574219 87.523438 C 134.96875 88.097656 134.40625 88.707031 133.925781 89.328125 Z M 168.671875 178.523438 L 168.671875 200.183594 C 168.671875 202.363281 166.898438 204.152344 164.703125 204.152344 L 115.367188 204.152344 C 113.171875 204.152344 111.382812 202.363281 111.382812 200.183594 L 111.382812 185 C 105.34375 180.988281 101.652344 175.523438 100.960938 168.183594 L 97.792969 134.371094 L 93.917969 128.332031 C 88.859375 120.0625 93.71875 115.488281 99.519531 111.089844 C 99.660156 103.414062 104.394531 97.082031 112.011719 95.726562 C 114.433594 89.417969 120.277344 84.585938 127.207031 85.078125 C 130.570312 80.402344 137.023438 75.445312 142.867188 78.363281 C 143.78125 78.8125 145.007812 79.699219 145.667969 80.601562 L 159.230469 99.109375 C 163.90625 96.953125 170.792969 95.699219 174.453125 100.25 L 175.582031 102.179688 L 188.144531 135.636719 C 191.253906 143.945312 190.679688 152.394531 186.472656 160.199219 C 182.21875 168.074219 176.417969 173.761719 168.671875 178.523438 Z M 204.578125 78.296875 C 203.042969 76.734375 203.074219 74.230469 204.632812 72.695312 C 206.183594 71.160156 208.703125 71.1875 210.238281 72.75 C 214.015625 76.578125 217.390625 80.621094 220.476562 85.015625 C 221.746094 86.804688 221.308594 89.28125 219.519531 90.535156 C 217.730469 91.800781 215.25 91.363281 214 89.574219 C 211.203125 85.589844 207.972656 81.746094 204.578125 78.296875 Z M 221.464844 102.277344 C 220.523438 100.304688 221.351562 97.941406 223.324219 96.996094 C 225.296875 96.054688 227.660156 96.898438 228.605469 98.871094 C 231.324219 104.519531 233.394531 110.121094 234.96875 116.195312 C 235.519531 118.320312 234.25 120.476562 232.136719 121.023438 C 230.011719 121.574219 227.855469 120.300781 227.308594 118.191406 C 225.917969 112.839844 223.847656 107.222656 221.464844 102.277344 Z M 229.789062 132.136719 C 229.574219 129.957031 231.183594 128.023438 233.363281 127.8125 C 235.535156 127.617188 237.464844 129.210938 237.671875 131.390625 C 238.390625 138.9375 238.277344 146.066406 237.289062 153.574219 C 237.007812 155.746094 235.023438 157.28125 232.851562 156.996094 C 230.683594 156.714844 229.148438 154.730469 229.429688 152.558594 C 230.308594 145.90625 230.4375 138.792969 229.789062 132.136719 Z M 175.863281 222.898438 C 177.875 222.050781 180.203125 222.996094 181.046875 225.007812 C 181.90625 227.019531 180.960938 229.347656 178.933594 230.191406 C 173.484375 232.5 167.582031 234.402344 161.824219 235.640625 C 159.683594 236.105469 157.574219 234.75 157.105469 232.601562 C 156.636719 230.457031 158.003906 228.347656 160.144531 227.878906 C 165.65625 226.699219 170.765625 225.0625 175.863281 222.898438 Z M 141.097656 229.921875 C 143.292969 229.921875 145.066406 231.695312 145.066406 233.890625 C 145.066406 236.085938 143.292969 237.859375 141.097656 237.859375 C 135.226562 237.859375 128.945312 237.285156 123.144531 236.203125 C 121.003906 235.792969 119.582031 233.722656 119.988281 231.582031 C 120.382812 229.425781 122.453125 228.003906 124.609375 228.410156 C 130.128906 229.445312 135.378906 229.921875 141.097656 229.921875 Z M 109.972656 224.347656 C 112.015625 225.121094 113.058594 227.402344 112.296875 229.445312 C 111.539062 231.5 109.257812 232.546875 107.214844 231.769531 C 103.425781 230.363281 100.453125 229.050781 96.867188 227.210938 C 94.925781 226.226562 94.152344 223.832031 95.148438 221.882812 C 96.132812 219.941406 98.527344 219.167969 100.476562 220.164062 C 103.339844 221.628906 106.917969 223.21875 109.972656 224.347656 Z M 87.414062 211.953125 C 89.15625 213.265625 89.511719 215.753906 88.1875 217.503906 C 86.867188 219.261719 84.386719 219.597656 82.640625 218.277344 C 79.960938 216.265625 77.726562 214.390625 75.164062 212.011719 C 73.574219 210.53125 73.472656 208.027344 74.949219 206.421875 C 76.429688 204.820312 78.933594 204.734375 80.539062 206.210938 C 82.554688 208.082031 85.105469 210.195312 87.414062 211.953125 Z M 71.671875 196.691406 C 73.050781 198.410156 72.78125 200.902344 71.0625 202.269531 C 69.359375 203.652344 66.867188 203.367188 65.5 201.664062 C 63.625 199.339844 61.625 196.597656 59.9375 194.03125 C 58.738281 192.203125 59.246094 189.75 61.078125 188.554688 C 62.910156 187.355469 65.359375 187.863281 66.558594 189.679688 C 68.207031 192.179688 69.742188 194.296875 71.671875 196.691406 Z M 59.457031 176.621094 C 60.347656 178.621094 59.417969 180.957031 57.417969 181.832031 C 55.40625 182.707031 53.078125 181.785156 52.207031 179.789062 L 49.265625 172.242188 C 48.558594 170.171875 49.671875 167.921875 51.742188 167.214844 C 53.816406 166.511719 56.066406 167.621094 56.769531 169.695312 Z M 72.882812 83.492188 C 71.476562 85.152344 68.980469 85.382812 67.304688 83.972656 C 65.628906 82.566406 65.414062 80.070312 66.828125 78.390625 C 70.121094 74.460938 73.503906 71.039062 77.332031 67.691406 C 78.984375 66.253906 81.472656 66.410156 82.921875 68.058594 C 84.359375 69.707031 84.191406 72.210938 82.539062 73.648438 C 79.105469 76.648438 75.792969 80.027344 72.882812 83.492188 Z M 92.203125 66.308594 C 90.371094 67.507812 87.921875 67 86.722656 65.167969 C 85.527344 63.347656 86.03125 60.882812 87.851562 59.6875 C 92.300781 56.769531 97.117188 54.125 101.921875 52.011719 C 103.933594 51.121094 106.273438 52.042969 107.15625 54.039062 C 108.046875 56.050781 107.125 58.390625 105.113281 59.273438 C 100.570312 61.296875 96.285156 63.621094 92.203125 66.308594 Z M 116.902344 55.046875 C 114.792969 55.636719 112.605469 54.410156 112.015625 52.300781 C 111.425781 50.1875 112.652344 48.003906 114.761719 47.410156 C 121.085938 45.621094 127.519531 44.496094 134.113281 44.03125 C 136.292969 43.878906 138.195312 45.523438 138.351562 47.710938 C 138.503906 49.90625 136.859375 51.792969 134.675781 51.945312 C 128.664062 52.382812 122.660156 53.425781 116.902344 55.046875 Z M 116.902344 55.046875 " fill-opacity="1" fill-rule="nonzero"/></g></svg>