<svg xmlns="http://www.w3.org/2000/svg" xmlns:xlink="http://www.w3.org/1999/xlink" width="361" zoomAndPan="magnify" viewBox="0 0 270.75 250.499992" height="334" preserveAspectRatio="xMidYMid meet" version="1.0"><defs><clipPath id="8d3c43236b"><path d="M 22.835938 14.410156 L 247.386719 14.410156 L 247.386719 235.21875 L 22.835938 235.21875 Z M 22.835938 14.410156 " clip-rule="nonzero"/></clipPath></defs><g clip-path="url(#8d3c43236b)"><path fill="#ffffff" d="M 115.804688 60.367188 L 115.671875 60.472656 L 106.894531 67.269531 C 105.722656 68.175781 104.039062 67.960938 103.136719 66.789062 C 102.230469 65.617188 102.445312 63.933594 103.617188 63.03125 L 107.386719 60.113281 C 86.25 61.574219 67.238281 70.75 53.144531 84.84375 C 37.738281 100.25 28.207031 121.539062 28.207031 145.054688 C 28.207031 168.570312 37.738281 189.859375 53.144531 205.265625 C 68.554688 220.675781 89.84375 230.207031 113.359375 230.207031 C 136.871094 230.207031 158.160156 220.675781 173.570312 205.265625 C 188.976562 189.859375 198.507812 168.570312 198.507812 145.054688 C 198.507812 143.570312 199.710938 142.367188 201.195312 142.367188 C 202.679688 142.367188 203.882812 143.570312 203.882812 145.054688 C 203.882812 170.050781 193.75 192.683594 177.371094 209.066406 C 160.988281 225.445312 138.355469 235.582031 113.359375 235.582031 C 88.359375 235.582031 65.730469 225.449219 49.347656 209.066406 C 32.964844 192.683594 22.832031 170.050781 22.832031 145.054688 C 22.832031 120.058594 32.964844 97.425781 49.347656 81.042969 C 64.390625 66.003906 84.699219 56.230469 107.273438 54.730469 L 102.964844 51.683594 C 101.753906 50.832031 101.460938 49.160156 102.3125 47.949219 C 103.164062 46.738281 104.839844 46.445312 106.050781 47.296875 L 116.289062 54.535156 L 116.300781 54.546875 L 116.355469 54.582031 L 116.371094 54.59375 L 117.011719 55.046875 C 118.222656 55.898438 118.511719 57.574219 117.660156 58.785156 C 117.472656 59.050781 117.246094 59.273438 116.992188 59.449219 Z M 113.359375 220.0625 C 114.292969 220.0625 115.355469 220.035156 116.539062 219.984375 C 117.726562 219.933594 118.792969 219.867188 119.734375 219.789062 C 121.632812 219.625 123.34375 218.855469 124.675781 217.648438 C 126.007812 216.445312 126.941406 214.8125 127.289062 212.9375 L 128.449219 206.6875 C 128.550781 206.132812 128.78125 205.644531 129.101562 205.261719 L 129.191406 205.171875 C 129.566406 204.765625 130.066406 204.464844 130.65625 204.308594 C 133.3125 203.605469 135.894531 202.730469 138.382812 201.699219 C 140.902344 200.65625 143.34375 199.441406 145.6875 198.078125 C 146.222656 197.765625 146.792969 197.621094 147.34375 197.644531 C 147.886719 197.664062 148.433594 197.847656 148.9375 198.195312 L 153.386719 201.253906 L 153.390625 201.246094 L 153.394531 201.253906 C 155.019531 202.371094 156.894531 202.855469 158.714844 202.734375 C 160.554688 202.609375 162.347656 201.875 163.800781 200.550781 C 164.976562 199.480469 166.132812 198.359375 167.265625 197.1875 L 167.273438 197.179688 C 168.300781 196.117188 169.335938 194.976562 170.378906 193.761719 C 170.429688 193.707031 170.480469 193.65625 170.527344 193.597656 C 171.765625 192.140625 172.4375 190.382812 172.53125 188.589844 C 172.621094 186.796875 172.132812 184.980469 171.050781 183.40625 L 171.050781 183.410156 L 171.042969 183.398438 L 168.066406 179.066406 C 167.71875 178.5625 167.535156 178.011719 167.515625 177.46875 C 167.492188 176.917969 167.636719 176.351562 167.949219 175.816406 C 169.3125 173.46875 170.527344 171.023438 171.574219 168.503906 C 172.601562 166.019531 173.476562 163.441406 174.179688 160.785156 C 174.324219 160.238281 174.585938 159.769531 174.933594 159.414062 L 175.042969 159.320312 C 175.445312 158.945312 175.964844 158.6875 176.558594 158.578125 L 181.339844 157.695312 C 183.164062 157.355469 184.757812 156.460938 185.949219 155.191406 C 186.007812 155.140625 186.058594 155.085938 186.109375 155.027344 C 187.316406 153.667969 188.074219 151.914062 188.199219 149.96875 C 188.246094 149.238281 188.285156 148.417969 188.316406 147.503906 C 188.347656 146.5 188.363281 145.679688 188.363281 145.054688 C 188.363281 144.429688 188.347656 143.609375 188.316406 142.601562 C 188.285156 141.6875 188.246094 140.867188 188.199219 140.136719 C 188.152344 139.375 188.003906 138.636719 187.769531 137.945312 C 187.851562 137.675781 187.921875 137.386719 187.980469 137.078125 L 187.976562 137.078125 L 187.980469 137.070312 L 188.863281 132.3125 C 188.921875 131.984375 189.0625 131.699219 189.265625 131.480469 C 189.46875 131.261719 189.746094 131.097656 190.074219 131.011719 C 192.125 130.46875 194.117188 129.792969 196.035156 128.996094 C 197.972656 128.195312 199.855469 127.257812 201.664062 126.207031 C 201.964844 126.03125 202.28125 125.949219 202.578125 125.960938 C 202.871094 125.972656 203.171875 126.074219 203.453125 126.265625 L 206.835938 128.59375 C 208.195312 129.527344 209.765625 129.933594 211.296875 129.832031 C 212.835938 129.726562 214.339844 129.113281 215.554688 128.003906 C 216.453125 127.1875 217.339844 126.328125 218.214844 125.421875 C 218.988281 124.625 219.777344 123.753906 220.578125 122.816406 C 220.632812 122.765625 220.679688 122.710938 220.726562 122.65625 C 221.761719 121.441406 222.324219 119.96875 222.398438 118.464844 C 222.476562 116.964844 222.070312 115.445312 221.167969 114.128906 L 221.164062 114.128906 L 221.15625 114.117188 L 218.890625 110.824219 C 218.699219 110.542969 218.597656 110.242188 218.585938 109.953125 C 218.574219 109.65625 218.65625 109.339844 218.832031 109.039062 C 219.882812 107.230469 220.820312 105.347656 221.625 103.40625 C 222.417969 101.488281 223.09375 99.5 223.636719 97.449219 C 223.722656 97.117188 223.886719 96.84375 224.109375 96.636719 L 224.105469 96.632812 C 224.316406 96.4375 224.605469 96.296875 224.941406 96.234375 L 228.578125 95.5625 C 230.171875 95.269531 231.558594 94.464844 232.570312 93.320312 C 233.582031 92.183594 234.21875 90.714844 234.320312 89.097656 C 234.40625 87.796875 234.449219 86.535156 234.449219 85.316406 C 234.449219 84.882812 234.433594 84.246094 234.410156 83.417969 C 234.386719 82.707031 234.355469 82.074219 234.320312 81.535156 C 234.21875 79.921875 233.582031 78.453125 232.570312 77.316406 C 231.558594 76.175781 230.171875 75.371094 228.578125 75.074219 L 224.941406 74.402344 C 224.609375 74.339844 224.324219 74.199219 224.105469 73.996094 C 223.886719 73.792969 223.722656 73.515625 223.636719 73.1875 C 223.09375 71.136719 222.417969 69.148438 221.625 67.230469 C 220.820312 65.292969 219.882812 63.40625 218.832031 61.597656 C 218.65625 61.296875 218.574219 60.980469 218.585938 60.683594 C 218.597656 60.390625 218.699219 60.089844 218.890625 59.8125 L 221.101562 56.59375 L 221.167969 56.507812 C 222.070312 55.191406 222.476562 53.671875 222.402344 52.171875 C 222.324219 50.667969 221.761719 49.195312 220.726562 47.980469 C 219.929688 47.042969 219.089844 46.121094 218.214844 45.214844 C 217.34375 44.3125 216.453125 43.449219 215.554688 42.628906 C 214.335938 41.523438 212.835938 40.90625 211.292969 40.804688 C 209.835938 40.707031 208.34375 41.074219 207.027344 41.921875 C 206.960938 41.960938 206.898438 42 206.832031 42.042969 L 203.453125 44.371094 C 203.171875 44.5625 202.871094 44.664062 202.578125 44.675781 C 202.28125 44.6875 201.964844 44.605469 201.664062 44.429688 C 199.855469 43.378906 197.972656 42.445312 196.03125 41.640625 C 194.113281 40.84375 192.125 40.171875 190.074219 39.628906 C 189.746094 39.542969 189.46875 39.375 189.265625 39.15625 C 189.0625 38.9375 188.921875 38.652344 188.863281 38.324219 L 187.980469 33.566406 C 187.703125 32.085938 186.988281 30.785156 185.972656 29.792969 C 185.917969 29.734375 185.859375 29.679688 185.800781 29.625 C 184.6875 28.613281 183.25 27.964844 181.65625 27.832031 C 180.960938 27.773438 180.140625 27.722656 179.203125 27.683594 C 178.257812 27.640625 177.4375 27.621094 176.75 27.621094 C 176.066406 27.621094 175.246094 27.640625 174.300781 27.683594 C 173.363281 27.722656 172.542969 27.773438 171.847656 27.832031 C 170.261719 27.960938 168.828125 28.613281 167.710938 29.625 C 166.597656 30.632812 165.8125 32 165.523438 33.566406 L 164.640625 38.320312 C 164.589844 38.617188 164.472656 38.875 164.3125 39.082031 L 164.238281 39.15625 C 164.035156 39.375 163.757812 39.542969 163.429688 39.628906 C 161.378906 40.171875 159.390625 40.84375 157.476562 41.636719 C 155.535156 42.441406 153.652344 43.378906 151.839844 44.429688 C 151.539062 44.605469 151.226562 44.6875 150.925781 44.675781 C 150.636719 44.664062 150.332031 44.558594 150.042969 44.359375 L 146.671875 42.042969 C 145.308594 41.109375 143.742188 40.699219 142.207031 40.804688 C 140.667969 40.90625 139.167969 41.523438 137.949219 42.628906 C 137.050781 43.445312 136.15625 44.316406 135.269531 45.234375 C 134.402344 46.132812 133.566406 47.046875 132.777344 47.980469 C 131.742188 49.195312 131.179688 50.667969 131.101562 52.171875 C 131.027344 53.671875 131.433594 55.191406 132.335938 56.507812 L 132.34375 56.5 L 132.347656 56.507812 L 134.511719 59.65625 C 134.542969 59.707031 134.574219 59.761719 134.613281 59.8125 C 134.804688 60.089844 134.90625 60.390625 134.917969 60.683594 C 134.929688 60.980469 134.847656 61.296875 134.671875 61.597656 C 133.621094 63.410156 132.683594 65.292969 131.878906 67.234375 C 131.085938 69.148438 130.410156 71.136719 129.867188 73.1875 C 129.78125 73.515625 129.617188 73.792969 129.398438 73.996094 L 129.402344 74 C 129.1875 74.199219 128.902344 74.339844 128.566406 74.402344 L 126.472656 74.789062 C 126.011719 73.902344 125.402344 73.117188 124.675781 72.457031 C 123.34375 71.25 121.632812 70.476562 119.734375 70.316406 C 118.792969 70.238281 117.730469 70.171875 116.542969 70.125 C 115.355469 70.074219 114.289062 70.046875 113.359375 70.046875 C 112.429688 70.046875 111.359375 70.074219 110.171875 70.125 C 108.984375 70.171875 107.921875 70.238281 106.980469 70.316406 C 105.082031 70.476562 103.367188 71.25 102.035156 72.460938 C 100.707031 73.664062 99.769531 75.292969 99.425781 77.171875 L 98.265625 83.421875 C 98.15625 84.019531 97.894531 84.539062 97.523438 84.941406 C 97.148438 85.34375 96.648438 85.644531 96.058594 85.800781 C 93.402344 86.503906 90.824219 87.378906 88.339844 88.410156 C 85.820312 89.453125 83.378906 90.667969 81.03125 92.03125 C 80.496094 92.339844 79.925781 92.484375 79.375 92.464844 C 78.832031 92.445312 78.28125 92.257812 77.78125 91.914062 L 73.332031 88.855469 C 71.707031 87.738281 69.832031 87.25 68 87.375 C 66.160156 87.5 64.371094 88.234375 62.914062 89.558594 C 61.835938 90.539062 60.722656 91.617188 59.578125 92.796875 C 59.527344 92.839844 59.476562 92.886719 59.429688 92.9375 C 58.304688 94.105469 57.21875 95.296875 56.1875 96.511719 C 54.949219 97.96875 54.277344 99.726562 54.1875 101.519531 C 54.09375 103.3125 54.582031 105.125 55.664062 106.699219 L 55.671875 106.695312 L 55.671875 106.699219 L 58.550781 110.886719 C 58.582031 110.941406 58.617188 110.992188 58.652344 111.042969 C 58.996094 111.546875 59.183594 112.097656 59.203125 112.640625 C 59.222656 113.1875 59.078125 113.757812 58.769531 114.292969 C 57.402344 116.640625 56.191406 119.082031 55.148438 121.601562 C 54.117188 124.085938 53.242188 126.667969 52.539062 129.320312 C 52.394531 129.867188 52.132812 130.335938 51.785156 130.691406 L 51.675781 130.789062 C 51.273438 131.160156 50.757812 131.417969 50.160156 131.53125 L 45.378906 132.414062 C 43.460938 132.769531 41.8125 133.726562 40.605469 135.082031 L 40.613281 135.085938 L 40.605469 135.089844 C 39.398438 136.449219 38.640625 138.203125 38.515625 140.136719 C 38.46875 140.867188 38.429688 141.6875 38.402344 142.59375 C 38.371094 143.605469 38.351562 144.429688 38.351562 145.054688 C 38.351562 145.679688 38.371094 146.503906 38.402344 147.515625 C 38.429688 148.417969 38.46875 149.242188 38.515625 149.96875 C 38.636719 151.828125 39.339844 153.515625 40.464844 154.851562 C 40.507812 154.910156 40.554688 154.96875 40.605469 155.027344 C 41.808594 156.382812 43.460938 157.339844 45.378906 157.695312 L 50.15625 158.578125 C 50.753906 158.6875 51.273438 158.945312 51.675781 159.320312 C 52.082031 159.695312 52.382812 160.195312 52.539062 160.785156 C 53.226562 163.378906 54.082031 165.914062 55.09375 168.375 L 55.144531 168.507812 C 56.191406 171.023438 57.402344 173.46875 58.769531 175.816406 C 59.078125 176.347656 59.222656 176.917969 59.203125 177.46875 C 59.183594 178.011719 58.996094 178.5625 58.652344 179.066406 L 55.726562 183.316406 L 55.664062 183.40625 C 54.582031 184.980469 54.09375 186.796875 54.1875 188.589844 C 54.277344 190.382812 54.949219 192.140625 56.1875 193.597656 L 56.195312 193.59375 L 56.199219 193.597656 C 57.289062 194.878906 58.375 196.078125 59.453125 197.191406 C 60.589844 198.367188 61.746094 199.488281 62.914062 200.550781 C 64.371094 201.875 66.164062 202.609375 68.003906 202.734375 C 69.832031 202.855469 71.707031 202.371094 73.332031 201.253906 L 77.777344 198.195312 C 78.28125 197.847656 78.832031 197.664062 79.375 197.640625 C 79.925781 197.621094 80.496094 197.765625 81.03125 198.078125 C 83.378906 199.441406 85.820312 200.65625 88.34375 201.699219 C 90.828125 202.730469 93.40625 203.605469 96.0625 204.308594 C 96.648438 204.464844 97.148438 204.765625 97.523438 205.171875 L 97.53125 205.164062 C 97.898438 205.566406 98.15625 206.085938 98.265625 206.6875 L 99.421875 212.9375 C 99.769531 214.8125 100.707031 216.441406 102.035156 217.644531 C 103.367188 218.855469 105.078125 219.628906 106.976562 219.789062 C 107.921875 219.867188 108.988281 219.933594 110.175781 219.984375 C 111.363281 220.035156 112.425781 220.0625 113.359375 220.0625 Z M 127.8125 79.988281 L 128.449219 83.425781 C 128.558594 84.019531 128.820312 84.539062 129.191406 84.941406 C 129.566406 85.34375 130.066406 85.644531 130.65625 85.800781 C 133.3125 86.503906 135.894531 87.378906 138.382812 88.414062 C 140.882812 89.449219 143.308594 90.652344 145.640625 92.003906 C 145.539062 91.527344 145.449219 91.046875 145.367188 90.558594 C 145.082031 88.828125 144.929688 87.074219 144.929688 85.316406 C 144.929688 76.53125 148.492188 68.574219 154.25 62.816406 C 160.007812 57.058594 167.964844 53.496094 176.75 53.496094 C 185.535156 53.496094 193.492188 57.058594 199.253906 62.816406 C 205.011719 68.574219 208.574219 76.53125 208.574219 85.316406 C 208.574219 94.101562 205.011719 102.058594 199.253906 107.820312 C 193.496094 113.578125 185.539062 117.140625 176.75 117.140625 C 174.496094 117.140625 172.277344 116.898438 170.125 116.445312 C 169.75 116.363281 169.375 116.277344 169.003906 116.183594 C 169.949219 117.945312 170.804688 119.753906 171.574219 121.605469 L 171.621094 121.734375 C 172.636719 124.195312 173.492188 126.726562 174.179688 129.320312 C 174.335938 129.910156 174.636719 130.414062 175.039062 130.789062 C 175.441406 131.160156 175.960938 131.417969 176.558594 131.53125 L 181.339844 132.414062 C 182.023438 132.542969 182.675781 132.746094 183.28125 133.015625 L 183.59375 131.347656 C 183.84375 129.988281 184.453125 128.785156 185.339844 127.828125 C 186.222656 126.878906 187.375 126.179688 188.707031 125.828125 C 190.507812 125.351562 192.265625 124.753906 193.976562 124.042969 C 195.710938 123.324219 197.382812 122.496094 198.976562 121.566406 C 200.164062 120.878906 201.46875 120.558594 202.769531 120.605469 C 204.074219 120.65625 205.359375 121.078125 206.496094 121.859375 L 209.878906 124.183594 C 210.203125 124.40625 210.578125 124.503906 210.9375 124.480469 C 211.292969 124.457031 211.648438 124.304688 211.941406 124.039062 C 212.792969 123.265625 213.601562 122.480469 214.371094 121.6875 C 215.148438 120.886719 215.863281 120.105469 216.511719 119.347656 C 216.550781 119.292969 216.589844 119.242188 216.632812 119.191406 C 216.890625 118.890625 217.03125 118.539062 217.046875 118.191406 C 217.066406 117.84375 216.960938 117.476562 216.738281 117.152344 L 216.738281 117.148438 L 214.484375 113.867188 C 213.703125 112.730469 213.28125 111.449219 213.234375 110.140625 C 213.183594 108.84375 213.503906 107.539062 214.191406 106.351562 C 215.121094 104.753906 215.953125 103.082031 216.671875 101.347656 C 217.378906 99.640625 217.976562 97.878906 218.453125 96.082031 C 218.804688 94.746094 219.503906 93.59375 220.453125 92.710938 L 220.460938 92.71875 L 220.464844 92.710938 C 221.425781 91.824219 222.625 91.214844 223.976562 90.964844 L 227.609375 90.292969 C 228 90.222656 228.328125 90.035156 228.558594 89.773438 C 228.792969 89.511719 228.941406 89.160156 228.96875 88.761719 C 229.039062 87.679688 229.074219 86.527344 229.074219 85.316406 C 229.074219 84.539062 229.066406 83.96875 229.054688 83.585938 C 229.039062 83.097656 229.007812 82.527344 228.96875 81.871094 C 228.941406 81.476562 228.792969 81.125 228.558594 80.863281 C 228.328125 80.601562 228 80.414062 227.609375 80.34375 L 223.976562 79.671875 C 222.613281 79.417969 221.410156 78.808594 220.453125 77.921875 C 219.503906 77.039062 218.804688 75.890625 218.453125 74.554688 C 217.976562 72.757812 217.378906 70.996094 216.671875 69.289062 C 215.953125 67.554688 215.121094 65.882812 214.191406 64.285156 C 213.503906 63.097656 213.183594 61.792969 213.234375 60.496094 C 213.28125 59.191406 213.699219 57.90625 214.484375 56.769531 L 216.691406 53.558594 L 216.738281 53.484375 C 216.960938 53.15625 217.066406 52.792969 217.046875 52.445312 C 217.03125 52.097656 216.890625 51.746094 216.632812 51.445312 C 215.898438 50.578125 215.144531 49.746094 214.375 48.953125 C 213.605469 48.15625 212.792969 47.371094 211.941406 46.597656 C 211.648438 46.332031 211.292969 46.179688 210.9375 46.15625 C 210.605469 46.132812 210.261719 46.210938 209.960938 46.394531 L 209.878906 46.453125 L 206.496094 48.777344 C 205.359375 49.558594 204.074219 49.980469 202.769531 50.03125 C 201.46875 50.078125 200.164062 49.761719 198.976562 49.070312 C 197.382812 48.144531 195.710938 47.3125 193.976562 46.59375 C 192.265625 45.886719 190.503906 45.289062 188.707031 44.8125 C 187.375 44.457031 186.222656 43.761719 185.339844 42.808594 C 184.453125 41.855469 183.84375 40.648438 183.59375 39.289062 L 182.710938 34.53125 C 182.648438 34.191406 182.496094 33.894531 182.28125 33.667969 L 182.191406 33.589844 C 181.9375 33.363281 181.601562 33.214844 181.214844 33.183594 C 180.363281 33.113281 179.621094 33.0625 178.992188 33.035156 C 178.382812 33.007812 177.636719 32.996094 176.75 32.996094 C 175.867188 32.996094 175.121094 33.007812 174.511719 33.035156 C 173.882812 33.0625 173.140625 33.113281 172.289062 33.183594 C 171.890625 33.214844 171.550781 33.363281 171.300781 33.589844 C 171.046875 33.820312 170.863281 34.148438 170.792969 34.53125 L 169.910156 39.289062 C 169.675781 40.554688 169.125 41.6875 168.328125 42.613281 C 168.277344 42.679688 168.222656 42.746094 168.164062 42.808594 C 167.28125 43.761719 166.132812 44.457031 164.796875 44.8125 C 163 45.285156 161.242188 45.882812 159.53125 46.59375 C 157.796875 47.3125 156.125 48.140625 154.527344 49.070312 C 153.339844 49.761719 152.035156 50.078125 150.738281 50.027344 C 149.429688 49.980469 148.148438 49.5625 147.019531 48.789062 L 147.023438 48.785156 L 147.007812 48.777344 L 143.625 46.453125 C 143.300781 46.230469 142.929688 46.132812 142.566406 46.15625 C 142.210938 46.179688 141.855469 46.328125 141.558594 46.597656 C 140.707031 47.371094 139.894531 48.160156 139.132812 48.949219 C 138.359375 49.746094 137.605469 50.578125 136.871094 51.445312 C 136.613281 51.746094 136.472656 52.097656 136.457031 52.445312 C 136.4375 52.789062 136.539062 53.15625 136.765625 53.484375 L 136.757812 53.488281 L 138.917969 56.632812 L 139.019531 56.769531 C 139.800781 57.90625 140.222656 59.191406 140.269531 60.496094 C 140.320312 61.792969 140.003906 63.097656 139.3125 64.285156 C 138.382812 65.882812 137.550781 67.554688 136.832031 69.289062 C 136.125 71 135.527344 72.757812 135.050781 74.554688 C 134.699219 75.886719 134.003906 77.039062 133.050781 77.921875 L 133.046875 77.917969 L 133.039062 77.921875 C 132.082031 78.808594 130.882812 79.417969 129.53125 79.671875 Z M 150.828125 90.613281 L 153.382812 88.855469 C 155.007812 87.738281 156.882812 87.25 158.714844 87.375 C 160.550781 87.5 162.34375 88.234375 163.800781 89.558594 C 164.972656 90.621094 166.128906 91.746094 167.269531 92.921875 C 168.34375 94.03125 169.429688 95.230469 170.515625 96.511719 L 170.523438 96.515625 L 170.527344 96.511719 C 171.765625 97.964844 172.4375 99.722656 172.53125 101.519531 C 172.621094 103.3125 172.132812 105.125 171.054688 106.699219 L 170.988281 106.789062 L 168.472656 110.453125 C 169.371094 110.746094 170.292969 110.996094 171.234375 111.195312 C 172.996094 111.570312 174.84375 111.765625 176.75 111.765625 C 184.054688 111.765625 190.667969 108.804688 195.453125 104.019531 C 200.238281 99.234375 203.199219 92.621094 203.199219 85.316406 C 203.199219 78.015625 200.238281 71.402344 195.453125 66.617188 C 190.667969 61.832031 184.054688 58.871094 176.75 58.871094 C 169.449219 58.871094 162.835938 61.832031 158.050781 66.617188 C 153.265625 71.402344 150.304688 78.015625 150.304688 85.316406 C 150.304688 86.839844 150.425781 88.304688 150.65625 89.699219 C 150.707031 90.003906 150.765625 90.308594 150.828125 90.613281 Z M 110.386719 214.632812 C 111.242188 214.667969 112.230469 214.6875 113.359375 214.6875 C 114.484375 214.6875 115.476562 214.667969 116.328125 214.632812 C 117.207031 214.59375 118.199219 214.527344 119.296875 214.433594 C 120 214.375 120.621094 214.101562 121.089844 213.679688 C 121.558594 213.253906 121.894531 212.664062 122.023438 211.972656 L 123.179688 205.71875 C 123.464844 204.183594 124.132812 202.816406 125.105469 201.707031 C 125.15625 201.640625 125.207031 201.578125 125.265625 201.515625 C 126.320312 200.382812 127.691406 199.550781 129.289062 199.125 C 131.695312 198.488281 134.046875 197.691406 136.328125 196.746094 C 138.640625 195.785156 140.871094 194.679688 143 193.441406 C 144.421875 192.613281 145.980469 192.230469 147.53125 192.289062 C 149.089844 192.347656 150.625 192.851562 151.984375 193.785156 L 156.429688 196.84375 L 156.425781 196.851562 C 157.011719 197.25 157.695312 197.425781 158.359375 197.378906 C 159.015625 197.335938 159.660156 197.066406 160.191406 196.582031 C 161.316406 195.5625 162.394531 194.515625 163.421875 193.453125 C 164.460938 192.378906 165.425781 191.324219 166.3125 190.285156 C 166.351562 190.234375 166.390625 190.183594 166.433594 190.132812 C 166.894531 189.59375 167.144531 188.953125 167.175781 188.316406 C 167.207031 187.675781 167.023438 187.015625 166.625 186.429688 L 163.65625 182.109375 C 162.71875 180.746094 162.21875 179.214844 162.160156 177.65625 C 162.101562 176.105469 162.484375 174.550781 163.3125 173.128906 C 164.550781 170.996094 165.660156 168.761719 166.617188 166.449219 C 167.5625 164.171875 168.359375 161.820312 168.996094 159.421875 C 169.394531 157.914062 170.167969 156.597656 171.222656 155.5625 C 171.273438 155.503906 171.328125 155.449219 171.386719 155.394531 C 172.527344 154.335938 173.964844 153.609375 175.59375 153.308594 L 180.375 152.425781 C 181.023438 152.304688 181.589844 152 182.007812 151.566406 L 182.101562 151.460938 C 182.53125 150.976562 182.800781 150.339844 182.847656 149.636719 C 182.902344 148.789062 182.941406 148.019531 182.960938 147.339844 C 182.980469 146.773438 182.988281 146.011719 182.988281 145.054688 C 182.988281 144.09375 182.980469 143.335938 182.960938 142.769531 C 182.941406 142.089844 182.902344 141.316406 182.847656 140.472656 C 182.820312 140.046875 182.714844 139.652344 182.539062 139.296875 C 182.503906 139.238281 182.472656 139.175781 182.441406 139.109375 C 182.363281 138.980469 182.28125 138.859375 182.1875 138.742188 L 182.101562 138.648438 C 181.664062 138.160156 181.066406 137.8125 180.375 137.683594 L 175.59375 136.800781 C 173.964844 136.496094 172.527344 135.769531 171.386719 134.714844 C 170.25 133.660156 169.417969 132.285156 168.996094 130.6875 C 168.367188 128.316406 167.589844 126.011719 166.675781 123.785156 L 166.617188 123.660156 C 165.660156 121.347656 164.550781 119.113281 163.3125 116.980469 C 162.484375 115.558594 162.101562 114 162.160156 112.449219 C 162.171875 112.183594 162.195312 111.917969 162.230469 111.652344 L 162.234375 111.625 L 162.242188 111.578125 L 162.261719 111.445312 L 162.261719 111.433594 L 162.265625 111.429688 C 162.460938 110.226562 162.925781 109.0625 163.65625 108 L 166.578125 103.75 L 166.625 103.679688 C 167.027344 103.09375 167.210938 102.429688 167.175781 101.792969 C 167.144531 101.15625 166.894531 100.515625 166.433594 99.976562 L 166.441406 99.972656 C 165.515625 98.886719 164.511719 97.78125 163.425781 96.660156 L 163.417969 96.648438 C 162.394531 95.59375 161.320312 94.550781 160.191406 93.523438 C 159.660156 93.042969 159.011719 92.773438 158.355469 92.726562 C 157.695312 92.683594 157.015625 92.859375 156.429688 93.265625 L 151.984375 96.324219 C 151.464844 96.679688 150.925781 96.96875 150.367188 97.199219 C 150.269531 97.246094 150.167969 97.289062 150.0625 97.328125 L 149.917969 97.371094 C 149.140625 97.640625 148.339844 97.789062 147.53125 97.820312 C 145.980469 97.878906 144.421875 97.496094 143 96.671875 C 140.867188 95.429688 138.636719 94.324219 136.324219 93.367188 C 134.042969 92.421875 131.691406 91.621094 129.292969 90.984375 C 127.691406 90.5625 126.320312 89.730469 125.265625 88.59375 C 124.210938 87.453125 123.480469 86.019531 123.179688 84.390625 L 122.078125 78.449219 L 122.054688 78.3125 L 122.023438 78.136719 C 121.894531 77.445312 121.558594 76.851562 121.085938 76.425781 C 120.621094 76.003906 120 75.730469 119.292969 75.671875 C 118.203125 75.578125 117.210938 75.511719 116.335938 75.476562 C 115.480469 75.441406 114.492188 75.421875 113.359375 75.421875 C 112.226562 75.421875 111.234375 75.441406 110.382812 75.476562 C 109.503906 75.511719 108.511719 75.578125 107.421875 75.671875 C 106.714844 75.730469 106.089844 76.003906 105.625 76.425781 C 105.15625 76.851562 104.820312 77.445312 104.695312 78.136719 L 103.535156 84.386719 C 103.234375 86.015625 102.507812 87.453125 101.449219 88.59375 C 100.398438 89.730469 99.023438 90.5625 97.425781 90.984375 C 95.023438 91.621094 92.675781 92.417969 90.398438 93.363281 C 88.082031 94.320312 85.851562 95.429688 83.71875 96.671875 C 82.296875 97.496094 80.738281 97.878906 79.1875 97.816406 C 77.628906 97.757812 76.097656 97.257812 74.734375 96.324219 L 70.289062 93.265625 C 69.699219 92.859375 69.019531 92.683594 68.359375 92.726562 C 67.703125 92.769531 67.058594 93.039062 66.523438 93.523438 C 65.390625 94.554688 64.351562 95.558594 63.410156 96.523438 L 63.292969 96.65625 C 62.261719 97.71875 61.257812 98.828125 60.28125 99.976562 C 59.824219 100.515625 59.574219 101.15625 59.539062 101.792969 C 59.507812 102.429688 59.691406 103.09375 60.09375 103.679688 L 60.085938 103.683594 L 62.957031 107.863281 L 63.058594 108 C 63.996094 109.363281 64.496094 110.894531 64.554688 112.449219 C 64.613281 114 64.230469 115.558594 63.40625 116.980469 C 62.167969 119.113281 61.058594 121.34375 60.101562 123.65625 C 59.15625 125.9375 58.359375 128.285156 57.722656 130.6875 C 57.324219 132.195312 56.546875 133.511719 55.492188 134.550781 C 55.441406 134.605469 55.386719 134.660156 55.328125 134.714844 C 54.191406 135.769531 52.753906 136.496094 51.125 136.800781 L 46.34375 137.683594 C 45.652344 137.8125 45.050781 138.160156 44.617188 138.648438 L 44.613281 138.644531 C 44.183594 139.128906 43.914062 139.761719 43.871094 140.472656 C 43.816406 141.316406 43.777344 142.078125 43.753906 142.761719 C 43.738281 143.328125 43.726562 144.089844 43.726562 145.054688 C 43.726562 146.015625 43.738281 146.78125 43.753906 147.347656 C 43.777344 148.027344 43.816406 148.792969 43.871094 149.636719 C 43.914062 150.300781 44.148438 150.898438 44.527344 151.367188 L 44.617188 151.460938 C 45.050781 151.949219 45.652344 152.296875 46.34375 152.425781 L 51.125 153.308594 C 52.75 153.609375 54.1875 154.335938 55.328125 155.394531 C 56.464844 156.449219 57.300781 157.824219 57.722656 159.421875 C 58.351562 161.792969 59.128906 164.097656 60.042969 166.324219 L 60.101562 166.449219 C 61.058594 168.761719 62.167969 170.996094 63.40625 173.128906 C 64.234375 174.550781 64.613281 176.105469 64.554688 177.65625 C 64.496094 179.214844 63.996094 180.746094 63.058594 182.109375 L 60.140625 186.355469 L 60.09375 186.429688 C 59.691406 187.015625 59.507812 187.675781 59.539062 188.316406 C 59.570312 188.953125 59.820312 189.59375 60.28125 190.132812 L 60.273438 190.136719 C 61.199219 191.226562 62.207031 192.332031 63.292969 193.453125 L 63.304688 193.464844 C 64.324219 194.519531 65.398438 195.558594 66.527344 196.585938 C 67.058594 197.066406 67.703125 197.335938 68.359375 197.378906 C 69.019531 197.425781 69.699219 197.25 70.289062 196.84375 L 74.734375 193.785156 C 76.09375 192.851562 77.628906 192.347656 79.183594 192.289062 C 80.738281 192.230469 82.296875 192.613281 83.71875 193.4375 C 85.851562 194.679688 88.082031 195.789062 90.398438 196.746094 C 92.675781 197.691406 95.023438 198.488281 97.425781 199.125 C 99.023438 199.550781 100.398438 200.382812 101.449219 201.515625 L 101.445312 201.523438 L 101.449219 201.527344 C 102.507812 202.667969 103.234375 204.101562 103.535156 205.722656 L 104.691406 211.96875 C 104.820312 212.660156 105.15625 213.253906 105.625 213.679688 C 106.089844 214.101562 106.710938 214.375 107.417969 214.433594 C 108.515625 214.527344 109.507812 214.59375 110.386719 214.632812 Z M 113.359375 104.0625 C 102.042969 104.0625 91.792969 108.652344 84.375 116.070312 C 76.957031 123.488281 72.367188 133.738281 72.367188 145.054688 C 72.367188 156.371094 76.957031 166.621094 84.375 174.039062 C 91.792969 181.457031 102.042969 186.046875 113.359375 186.046875 C 124.675781 186.046875 134.921875 181.457031 142.339844 174.039062 C 149.757812 166.621094 154.347656 156.371094 154.347656 145.054688 C 154.347656 133.738281 149.757812 123.488281 142.339844 116.070312 C 134.921875 108.652344 124.671875 104.0625 113.359375 104.0625 Z M 138.542969 119.871094 C 132.097656 113.425781 123.191406 109.4375 113.359375 109.4375 C 103.523438 109.4375 94.617188 113.425781 88.175781 119.871094 C 81.730469 126.316406 77.742188 135.21875 77.742188 145.054688 C 77.742188 154.890625 81.730469 163.792969 88.175781 170.238281 C 94.617188 176.683594 103.523438 180.671875 113.359375 180.671875 C 123.191406 180.671875 132.097656 176.683594 138.542969 170.238281 C 144.984375 163.792969 148.972656 154.886719 148.972656 145.054688 C 148.972656 135.21875 144.984375 126.316406 138.542969 119.871094 Z M 226.902344 115.4375 L 227.808594 127.546875 C 227.917969 129.023438 229.207031 130.132812 230.6875 130.023438 C 230.886719 130.007812 231.078125 129.972656 231.261719 129.917969 L 243.609375 126.179688 C 245.03125 125.75 245.835938 124.25 245.40625 122.832031 C 244.976562 121.410156 243.476562 120.609375 242.058594 121.035156 L 237.105469 122.535156 C 239.832031 118.125 242.089844 113.394531 243.804688 108.421875 C 246.300781 101.175781 247.65625 93.40625 247.65625 85.316406 C 247.65625 65.738281 239.71875 48.011719 226.886719 35.183594 C 214.058594 22.351562 196.332031 14.414062 176.753906 14.414062 C 168.152344 14.414062 159.902344 15.949219 152.265625 18.761719 C 144.347656 21.675781 137.089844 25.96875 130.78125 31.34375 C 129.65625 32.308594 129.523438 34 130.484375 35.125 C 131.449219 36.246094 133.140625 36.378906 134.265625 35.417969 C 140.082031 30.457031 146.789062 26.496094 154.113281 23.800781 C 161.160156 21.207031 168.789062 19.789062 176.753906 19.789062 C 194.847656 19.789062 211.230469 27.125 223.089844 38.980469 C 234.945312 50.839844 242.28125 67.222656 242.28125 85.316406 C 242.28125 92.800781 241.027344 99.988281 238.722656 106.679688 C 237.148438 111.25 235.085938 115.589844 232.601562 119.632812 L 232.257812 115.035156 C 232.144531 113.558594 230.859375 112.449219 229.378906 112.558594 C 227.902344 112.667969 226.792969 113.957031 226.902344 115.4375 Z M 226.902344 115.4375 " fill-opacity="1" fill-rule="evenodd"/></g></svg>