<svg xmlns="http://www.w3.org/2000/svg" xmlns:xlink="http://www.w3.org/1999/xlink" width="361" zoomAndPan="magnify" viewBox="0 0 270.75 250.499992" height="334" preserveAspectRatio="xMidYMid meet" version="1.0"><defs><clipPath id="f333742fec"><path d="M 28.832031 10.558594 L 241.410156 10.558594 L 241.410156 241 L 28.832031 241 Z M 28.832031 10.558594 " clip-rule="nonzero"/></clipPath></defs><g clip-path="url(#f333742fec)"><path fill="#ffffff" d="M 57.582031 189.757812 C 18.445312 147.972656 19.308594 82.496094 60.019531 41.785156 C 101.582031 0.222656 168.964844 0.222656 210.527344 41.785156 C 252.089844 83.347656 252.089844 150.730469 210.527344 192.292969 C 191.269531 211.554688 164.660156 223.464844 135.273438 223.464844 C 131.855469 223.464844 127.332031 223.261719 123.921875 222.859375 C 120.589844 222.507812 117.3125 222 114.097656 221.351562 C 111.445312 222.875 109.582031 224.25 107.796875 225.566406 C 107.007812 226.148438 106.234375 226.71875 105.414062 227.292969 C 105.816406 229.429688 104.871094 231.660156 102.960938 232.824219 L 90.925781 240.144531 C 88.417969 241.667969 85.117188 240.835938 83.636719 238.367188 C 75.136719 223.949219 66.011719 209.804688 57.496094 195.394531 C 56.429688 193.609375 56.496094 191.449219 57.582031 189.761719 Z M 101.933594 220.921875 C 102.46875 220.539062 103 220.148438 103.535156 219.75 C 108.988281 215.730469 115.148438 211.1875 137.953125 204.316406 C 142.265625 203.015625 149.414062 197.070312 155.871094 189.308594 C 159.96875 184.386719 163.703125 178.792969 166.164062 173.253906 C 162.03125 173.921875 157.863281 174.253906 153.683594 174.261719 C 141.578125 189.089844 130.558594 194.484375 123.539062 195.136719 C 114.511719 195.976562 109.914062 189.21875 114.617188 182.859375 L 125.546875 168.1875 C 131.34375 160.40625 130.945312 152.886719 128.46875 147.984375 C 127.507812 146.082031 125.476562 143.449219 123.5625 143.089844 C 123.238281 143.027344 122.925781 143.167969 122.699219 143.566406 C 107.136719 170.601562 93.191406 170.320312 87.320312 178.152344 L 81.121094 186.710938 Z M 76.597656 180.660156 L 81.5625 173.835938 C 84.886719 169.402344 89.199219 167.234375 93.867188 164.335938 C 93.585938 163.820312 93.277344 163.296875 92.949219 162.765625 L 92.957031 162.761719 C 92.003906 161.238281 90.925781 159.730469 89.492188 158.011719 L 89.496094 158.007812 C 84.425781 151.730469 84.347656 145.726562 84.3125 141.039062 C 84.277344 137.015625 84.25 133.542969 78.96875 130.488281 C 68.871094 124.652344 63.320312 118.90625 58.785156 114.210938 C 52.882812 108.101562 48.980469 104.066406 36.785156 105.09375 C 33.210938 134.851562 43.085938 164.144531 63.5 185.535156 L 71.300781 180.789062 C 72.953125 179.785156 74.964844 179.78125 76.597656 180.660156 Z M 88.808594 232.996094 L 97.589844 227.652344 L 73.429688 187.929688 L 64.644531 193.273438 Z M 126.199219 215.839844 C 156.835938 218.59375 185.789062 207.242188 206.144531 186.449219 C 199.484375 179.945312 193.253906 172.960938 188.808594 165.898438 C 184.246094 168.203125 179.488281 170.046875 174.601562 171.40625 C 172.070312 179.144531 167.035156 187.144531 161.402344 193.910156 C 154.089844 202.695312 145.554688 209.5625 140.015625 211.230469 C 134.429688 212.914062 129.914062 214.4375 126.199219 215.839844 Z M 144.628906 173.761719 C 140.417969 173.289062 136.238281 172.492188 132.117188 171.382812 L 120.101562 187.480469 C 119.800781 187.78125 119.894531 187.625 120.195312 187.742188 C 120.816406 187.984375 121.71875 188.078125 122.890625 187.96875 C 127.816406 187.511719 135.507812 183.753906 144.628906 173.761719 Z M 135.605469 164.851562 C 171.921875 173.792969 207.425781 154.921875 221.003906 119.363281 C 200.761719 111.03125 178.261719 111.277344 158.648438 121.601562 C 157.441406 122.238281 156.265625 122.898438 155.125 123.585938 C 154.914062 123.863281 151.964844 138.023438 140.140625 151.949219 C 144.707031 150.304688 149.265625 148.519531 153.683594 146.679688 C 155.285156 142.609375 155.84375 137.421875 154.46875 132.828125 C 153.898438 130.917969 154.988281 128.910156 156.894531 128.339844 C 158.804688 127.773438 160.816406 128.859375 161.382812 130.769531 C 162.621094 134.90625 162.726562 139.113281 162.097656 143.035156 C 172.632812 138.261719 181.65625 133.523438 186.773438 129.921875 C 188.402344 128.777344 190.652344 129.167969 191.800781 130.796875 C 192.945312 132.425781 192.554688 134.675781 190.925781 135.824219 C 187.957031 137.90625 183.683594 140.414062 178.550781 143.097656 C 181.6875 144.636719 184.074219 146.804688 185.921875 149.929688 C 186.933594 151.644531 186.367188 153.855469 184.652344 154.871094 C 182.9375 155.882812 180.726562 155.3125 179.710938 153.601562 C 177.378906 149.652344 173.570312 148.308594 168.871094 148.328125 C 168.601562 148.328125 168.332031 148.300781 168.078125 148.242188 C 167.394531 148.558594 166.703125 148.878906 166.003906 149.195312 C 157.03125 153.277344 146.847656 157.382812 136.839844 160.734375 C 136.550781 162.085938 136.144531 163.460938 135.605469 164.851562 Z M 135.566406 146.179688 C 152.902344 124.828125 155.554688 94.890625 142.039062 70.734375 C 119.328125 86.699219 108.703125 115 115.3125 141.929688 C 115.695312 141.296875 116.074219 140.648438 116.460938 139.980469 C 118.496094 136.445312 121.710938 135.300781 125.15625 136.058594 C 125.460938 134.769531 125.75 133.476562 126.027344 132.191406 C 125.085938 131.273438 123.464844 126.714844 118.164062 123.632812 C 116.441406 122.636719 115.851562 120.433594 116.851562 118.710938 C 117.847656 116.988281 120.054688 116.398438 121.777344 117.398438 C 124.167969 118.785156 126.25 120.582031 127.910156 122.433594 C 129.285156 114.449219 130.503906 104.328125 130.769531 98.25 C 130.855469 96.265625 132.535156 94.722656 134.523438 94.808594 C 136.511719 94.894531 138.050781 96.574219 137.964844 98.5625 C 137.839844 101.433594 137.523438 105.324219 136.996094 109.867188 C 138.929688 109.136719 140.964844 108.851562 143.160156 108.929688 C 145.148438 109 146.703125 110.667969 146.632812 112.65625 C 146.5625 114.644531 144.894531 116.199219 142.90625 116.128906 C 141.375 116.070312 140.039062 116.304688 138.851562 116.898438 C 137.777344 117.433594 136.730469 118.304688 135.675781 119.5625 L 135.578125 120.183594 C 134.585938 126.441406 133.277344 133.25 131.617188 140 C 133.234375 141.714844 134.585938 143.839844 135.566406 146.179688 Z M 110.0625 149.6875 C 105.550781 136.300781 104.933594 121.914062 108.375 107.980469 C 103.679688 105.199219 101.414062 102.753906 93.011719 106.003906 C 87.75 108.039062 83.707031 108.566406 79.632812 106.75 C 75.871094 105.074219 72.589844 101.472656 68.691406 95.199219 C 60.753906 82.4375 72.074219 72.5625 86.699219 74.414062 L 87.394531 74.53125 L 87.394531 74.527344 C 90.53125 75.101562 106.308594 77.984375 120.949219 62.664062 C 123.644531 59.351562 124.890625 56.046875 125.03125 52.878906 C 125.335938 45.976562 120.554688 39.671875 115.234375 35.316406 C 109.183594 30.363281 101.457031 27.011719 94.71875 26.480469 C 83.625 31.457031 73.609375 38.410156 65.128906 46.890625 C 51.496094 60.523438 41.8125 78.109375 37.941406 97.777344 C 52.085938 96.90625 56.863281 101.851562 63.980469 109.21875 C 68.191406 113.578125 73.347656 118.914062 82.582031 124.253906 C 91.414062 129.355469 91.457031 134.746094 91.507812 140.980469 C 91.539062 144.703125 91.574219 148.851562 95.023438 153.382812 C 96.605469 155.277344 97.9375 157.140625 99.066406 158.960938 L 99.074219 158.957031 C 99.339844 159.378906 99.589844 159.800781 99.828125 160.214844 C 103.011719 157.710938 106.445312 154.421875 110.0625 149.6875 Z M 157.074219 114.3125 C 167.136719 109.324219 177.949219 106.6875 188.832031 106.296875 C 182.785156 100.996094 174.640625 100.199219 165.707031 87.761719 C 155.652344 73.773438 157.867188 60.375 175.90625 55.242188 C 183.839844 52.984375 195.363281 52.152344 211.394531 53.425781 C 186.207031 23.304688 145.160156 10.433594 106.625 22.035156 C 119.164062 26.945312 132.867188 38.78125 132.230469 53.191406 C 132.019531 57.898438 130.269531 62.675781 126.496094 67.285156 L 126.492188 67.28125 C 126.4375 67.347656 126.375 67.417969 126.3125 67.480469 C 108.960938 85.792969 89.878906 82.304688 86.097656 81.613281 L 86.097656 81.609375 C 82.035156 80.871094 76.117188 81.863281 74.023438 84.796875 C 72.699219 86.660156 73.320312 88.984375 74.816406 91.390625 C 77.929688 96.398438 80.277344 99.152344 82.570312 100.175781 C 84.546875 101.054688 86.976562 100.617188 90.417969 99.289062 C 101.246094 95.097656 105.191406 97.574219 110.511719 100.855469 C 116.167969 84.917969 127.085938 71.4375 141.292969 62.578125 C 143.007812 61.507812 145.210938 62.019531 146.34375 63.871094 C 155.753906 79.054688 159.671875 96.417969 157.074219 114.3125 Z M 195.097656 162.351562 C 199.164062 168.71875 204.972656 175.210938 211.003906 181.121094 C 239.757812 147.171875 242.402344 98.050781 217.292969 61.222656 C 198.738281 59.234375 186.050781 59.863281 177.882812 62.183594 C 170.9375 64.160156 165.984375 67.582031 167.144531 74.199219 C 167.65625 77.136719 169.234375 80.335938 171.546875 83.558594 C 181.382812 97.246094 191.484375 95.121094 198.34375 106.523438 C 208.183594 107.335938 217.886719 109.9375 227.027344 114.136719 C 228.71875 114.910156 229.523438 116.828125 228.945312 118.554688 C 222.855469 136.644531 211.238281 152.222656 195.101562 162.351562 Z M 195.097656 162.351562 " fill-opacity="1" fill-rule="evenodd"/></g></svg>